<svg width="104" height="30" viewBox="0 0 104 30" fill="none" xmlns="http://www.w3.org/2000/svg">
    <path d="M10.7603 16.102C8.17741 14.6038 7.72225 12.3344 9.40147 10.5773C9.52777 10.4453 9.4475 10.2256 9.26595 10.2048C7.75687 10.0328 6.31518 9.6078 5.14599 8.92975L2.27181 7.26293C2.20369 7.22335 2.11936 7.22335 2.05123 7.26293L0.110198 8.38894C-0.0367327 8.47439 -0.0367327 8.68746 0.110198 8.77291L3.1221 10.5196C3.26903 10.6051 3.26903 10.8182 3.1221 10.9036L0.110198 12.6503C-0.0367327 12.7358 -0.0367327 12.9488 0.110198 13.0343L3.1221 14.781C3.26903 14.8665 3.26903 15.0795 3.1221 15.165L0.110198 16.9117C-0.0367327 16.9971 -0.0367327 17.2102 0.110198 17.2957L3.1221 19.0424C3.26903 19.1278 3.26903 19.3409 3.1221 19.4264L0.110198 21.1731C-0.0367327 21.2585 -0.0367327 21.4716 0.110198 21.557L14.617 29.9703C14.6851 30.0099 14.7694 30.0099 14.8375 29.9703L24.4245 24.4102C24.5714 24.3247 24.5714 24.1117 24.4245 24.0262L10.7607 16.1016L10.7603 16.102Z" fill="#002147"/>
    <path d="M26.239 10.574L29.2509 8.82729C29.3978 8.74184 29.3978 8.52877 29.2509 8.44332L14.7441 0.0296854C14.676 -0.00989513 14.5917 -0.00989513 14.5235 0.0296854L4.79111 5.67416C4.64418 5.75961 4.64418 5.97268 4.79111 6.05813L7.4447 7.59696C9.18725 8.60756 11.9535 8.66786 13.7999 7.77526C13.8055 7.77267 13.811 7.76971 13.8161 7.76638L14.6613 7.27625C14.7183 7.24333 14.7784 7.213 14.8413 7.18599C14.8487 7.18266 14.8561 7.17896 14.8631 7.17489L15.021 7.08316C15.2099 6.97366 15.1426 6.68402 14.9249 6.66997L11.9185 6.47576C11.0233 6.41769 10.3734 5.95049 10.4677 5.4315C10.5619 4.91252 11.364 4.53891 12.2595 4.59661L19.3785 5.05641C19.3892 5.05715 19.3995 5.05789 19.4102 5.059C19.4216 5.05974 19.433 5.06048 19.4444 5.06159C19.4566 5.0627 19.4687 5.06418 19.4813 5.06529C19.4938 5.0664 19.5067 5.06788 19.5192 5.06936C19.5225 5.06973 19.5258 5.0701 19.5291 5.07047C19.5667 5.07565 19.6046 5.08083 19.6422 5.08637C19.6473 5.08711 19.6529 5.08785 19.658 5.08896C19.6739 5.09155 19.6893 5.09451 19.7048 5.09747C19.7125 5.09895 19.7203 5.10043 19.7276 5.10191C19.7431 5.10487 19.7582 5.1082 19.7736 5.11153C19.781 5.11301 19.7884 5.11486 19.7957 5.11634C19.8112 5.12004 19.8267 5.12337 19.8418 5.12743C19.8484 5.12928 19.855 5.13076 19.862 5.13261C19.8779 5.13668 19.8933 5.14075 19.9088 5.14519C19.9143 5.14667 19.9198 5.14852 19.9257 5.15C19.9419 5.15481 19.9585 5.15962 19.9743 5.16443C19.9766 5.16517 19.9788 5.16591 19.981 5.16665C20.0325 5.18292 20.083 5.20105 20.1316 5.22065C20.1393 5.22361 20.1471 5.22694 20.1548 5.2299C20.1658 5.23471 20.1769 5.23915 20.1876 5.24433C20.1975 5.24877 20.2071 5.2532 20.2167 5.25764C20.2259 5.26208 20.2354 5.26652 20.2446 5.27096C20.2564 5.27651 20.2682 5.28243 20.2796 5.28835C20.287 5.29205 20.294 5.29574 20.301 5.29944C20.3198 5.30943 20.3382 5.31942 20.3562 5.32978C20.3743 5.34013 20.3916 5.35086 20.4085 5.36159C20.4151 5.36566 20.4214 5.3701 20.4277 5.37417C20.4376 5.38082 20.4479 5.38748 20.4575 5.39451C20.4652 5.40006 20.4729 5.40524 20.4803 5.41079C20.488 5.41634 20.4954 5.42188 20.5028 5.42743C20.5112 5.43372 20.5194 5.44038 20.5275 5.44667C20.533 5.45111 20.5381 5.45555 20.5433 5.45999C20.5775 5.48847 20.6092 5.51806 20.6372 5.54802C20.6383 5.54913 20.6394 5.55024 20.6405 5.55135C20.6493 5.56097 20.6578 5.57022 20.6659 5.57984C20.6685 5.5828 20.6714 5.58612 20.674 5.58908C20.6817 5.59833 20.6887 5.60721 20.6957 5.61646C20.6987 5.62016 20.7016 5.62423 20.7042 5.62792C20.7108 5.6368 20.7171 5.64568 20.7234 5.65493C20.7263 5.659 20.7289 5.66344 20.7315 5.66751C20.7374 5.67638 20.7429 5.68526 20.7484 5.69451C20.751 5.69895 20.7532 5.70302 20.7558 5.70746C20.7609 5.7167 20.7661 5.72558 20.7705 5.73483C20.7723 5.73853 20.7738 5.74223 20.7757 5.74593C20.7856 5.76664 20.7944 5.78736 20.8022 5.80844C20.8029 5.81066 20.804 5.81288 20.8047 5.8151C20.8073 5.8225 20.8095 5.8299 20.8117 5.83766C20.8139 5.84469 20.8162 5.85135 20.818 5.85838C20.8198 5.86504 20.8213 5.8717 20.8228 5.87872C20.8243 5.88464 20.8257 5.89093 20.8268 5.89685L21.62 10.0254C21.7198 10.5448 21.0754 11.0098 20.1806 11.0645C19.6702 11.0956 19.1881 10.9865 18.8501 10.7904C18.5956 10.6428 18.4225 10.4464 18.3798 10.2233L18.0226 8.36342C17.9939 8.21398 17.8271 8.1374 17.6956 8.21361L16.427 8.94936C16.2963 9.02519 16.1619 9.09769 16.0245 9.16687L13.0369 10.8995C11.2034 11.9627 11.213 13.6983 13.0579 14.7684L27.0454 22.8806C27.0399 22.8869 27.034 22.8928 27.0281 22.8991L29.2501 21.6103C29.3971 21.5249 29.3971 21.3118 29.2501 21.2263L26.2382 19.4796C26.0913 19.3942 26.0913 19.1811 26.2382 19.0957L29.2501 17.3489C29.3971 17.2635 29.3971 17.0504 29.2501 16.965L26.2382 15.2182C26.0913 15.1328 26.0913 14.9197 26.2382 14.8343L29.2501 13.0876C29.3971 13.0021 29.3971 12.789 29.2501 12.7036L26.2382 10.9569C26.0913 10.8714 26.0913 10.6584 26.2382 10.5729L26.239 10.574Z" fill="#002147"/>
    <path d="M45.2108 11.1992H43.1765C43.0716 11.1992 42.9982 11.2831 42.9982 11.3775V17.4699C42.9982 18.6234 43.5749 18.875 44.2985 18.875C44.5501 18.875 44.7913 18.8436 44.9591 18.8016C45.0535 18.7807 45.1478 18.8436 45.1688 18.938L45.5778 20.8359C45.5987 20.9303 45.5463 21.0247 45.4519 21.0457C45.1269 21.14 44.613 21.2554 43.9315 21.2764C41.7818 21.3393 40.125 20.2173 40.1355 17.9313V11.367C40.1355 11.2622 40.0516 11.1888 39.9572 11.1888H38.6045C38.4997 11.1888 38.4263 11.1049 38.4263 11.0105V9.16495C38.4263 9.06009 38.5102 8.98668 38.6045 8.98668H39.9572C40.0621 8.98668 40.1355 8.90279 40.1355 8.80842V6.27079C40.1355 6.16593 40.2194 6.09253 40.3138 6.09253H42.8094C42.9143 6.09253 42.9877 6.17642 42.9877 6.27079V8.80842C42.9877 8.91328 43.0716 8.98668 43.166 8.98668H45.2003C45.3051 8.98668 45.3785 9.07057 45.3785 9.16495V11.0105C45.3785 11.1154 45.2946 11.1888 45.2003 11.1888L45.2108 11.1992Z" fill="#002147"/>
    <path d="M47.4441 17.7112C47.4441 14.9743 49.6986 14.2718 52.0475 14.0201C54.1866 13.7894 55.0465 13.7475 55.0465 12.9295V12.8771C55.0465 11.6817 54.3229 11.0001 52.9912 11.0001C51.6595 11.0001 50.873 11.6398 50.548 12.4052C50.5165 12.4786 50.4326 12.5311 50.3487 12.5206L48.0313 12.1955C47.916 12.1745 47.853 12.0592 47.8845 11.9543C48.5766 9.87809 50.4955 8.819 52.9597 8.819C55.2772 8.819 57.8882 9.78372 57.8882 12.9925V20.9304C57.8882 21.0353 57.8043 21.1087 57.7099 21.1087H55.3296C55.2247 21.1087 55.1513 21.0248 55.1513 20.9304V19.5043C55.1513 19.5043 55.1199 19.4414 55.0884 19.4414C55.0884 19.4414 55.0465 19.4519 55.036 19.4728C54.5117 20.4795 53.3687 21.3498 51.4917 21.3498C49.1743 21.3498 47.4336 20.081 47.4336 17.7007L47.4441 17.7112ZM55.057 16.7674V15.4462C55.057 15.4462 55.0045 15.3728 54.9731 15.3938C54.4907 15.6559 53.138 15.8342 52.4354 15.9286C51.1561 16.1068 50.2019 16.5682 50.2019 17.6692C50.2019 18.7703 51.0513 19.2631 52.2467 19.2631C53.9664 19.2631 55.057 18.1201 55.057 16.7674Z" fill="#002147"/>
    <path d="M61.3279 4.93948H63.8236C63.9285 4.93948 64.0019 5.02337 64.0019 5.11775V10.9165C64.0019 10.9165 64.0333 10.9899 64.0753 10.9899C64.0753 10.9899 64.1277 10.9795 64.1382 10.948C64.5786 10.0777 65.4804 8.81933 67.5881 8.81933C70.3879 8.81933 72.6005 11.0109 72.6005 15.0585C72.6005 19.1062 70.4613 21.3187 67.5986 21.3187C65.5538 21.3187 64.6101 20.1338 64.1487 19.253C64.1277 19.2215 64.0963 19.2005 64.0543 19.2005H64.0229C64.0229 19.2005 63.9599 19.232 63.9599 19.2634V20.9307C63.9599 21.0356 63.876 21.109 63.7817 21.109H61.3384C61.2336 21.109 61.1602 21.0251 61.1602 20.9307V5.11775C61.1602 5.01289 61.244 4.93948 61.3384 4.93948H61.3279ZM66.8017 18.9908C68.6892 18.9908 69.6853 17.334 69.6853 15.0585C69.6853 12.7831 68.7101 11.1787 66.8017 11.1787C64.8932 11.1787 63.9494 12.6992 63.9494 15.0585C63.9494 17.4179 64.9771 18.9908 66.8017 18.9908Z" fill="#002147"/>
    <path d="M75.0435 5.71521C75.0435 4.85535 75.788 4.16327 76.7003 4.16327C77.6125 4.16327 78.3466 4.85535 78.3466 5.71521C78.3466 6.57506 77.6021 7.26714 76.7003 7.26714C75.7985 7.26714 75.0435 6.57506 75.0435 5.71521ZM75.4419 8.98686H77.9376C78.0425 8.98686 78.1159 9.07075 78.1159 9.16512V20.9305C78.1159 21.0353 78.032 21.1087 77.9376 21.1087H75.4419C75.3371 21.1087 75.2637 21.0249 75.2637 20.9305V9.16512C75.2637 9.06026 75.3476 8.98686 75.4419 8.98686Z" fill="#002147"/>
    <path d="M81.2514 25.2089L81.8176 23.3214C81.8491 23.227 81.9435 23.1746 82.0379 23.1956C83.1913 23.4997 83.9778 23.3528 84.4811 22.0316L84.6489 21.5702C84.7013 21.4444 84.7013 21.3081 84.6489 21.1717L80.402 9.22812C80.3601 9.11277 80.444 8.98694 80.5698 8.98694H83.2123C83.2962 8.98694 83.3591 9.03937 83.3906 9.11277L86.1274 18.0888C86.1274 18.0888 86.1694 18.1518 86.2113 18.1518C86.2113 18.1518 86.2847 18.1308 86.2952 18.0888L89.0425 9.11277C89.0635 9.03937 89.1369 8.98694 89.2208 8.98694H91.8738C91.9996 8.98694 92.0835 9.11277 92.0416 9.22812L87.2704 22.5874C86.5783 24.5273 85.299 25.6703 83.0655 25.6703C82.3839 25.6703 81.7757 25.5654 81.3667 25.4291C81.2724 25.3976 81.2199 25.3033 81.2514 25.2089Z" fill="#002147"/>
    <path d="M93.3943 17.7112C93.3943 14.9743 95.6488 14.2718 97.9977 14.0201C100.137 13.7894 100.997 13.7475 100.997 12.9295V12.8771C100.997 11.6817 100.273 11.0001 98.9414 11.0001C97.6097 11.0001 96.8232 11.6398 96.4981 12.4052C96.4667 12.4786 96.3828 12.5311 96.2989 12.5206L93.9815 12.1955C93.8661 12.1745 93.8032 12.0592 93.8347 11.9543C94.5268 9.87809 96.4457 8.819 98.9099 8.819C101.227 8.819 103.838 9.78372 103.838 12.9925V20.9304C103.838 21.0353 103.755 21.1087 103.66 21.1087H101.28C101.175 21.1087 101.102 21.0248 101.102 20.9304V19.5043C101.102 19.5043 101.07 19.4414 101.039 19.4414C101.039 19.4414 100.997 19.4519 100.986 19.4728C100.462 20.4795 99.3189 21.3498 97.4419 21.3498C95.1245 21.3498 93.3838 20.081 93.3838 17.7007L93.3943 17.7112ZM101.007 16.7674V15.4462C101.007 15.4462 100.955 15.3728 100.923 15.3938C100.441 15.6559 99.0882 15.8342 98.3856 15.9286C97.1063 16.1068 96.1521 16.5682 96.1521 17.6692C96.1521 18.7703 97.0015 19.2631 98.1969 19.2631C99.9166 19.2631 101.007 18.1201 101.007 16.7674Z" fill="#002147"/>
</svg>
