<?xml version="1.0" encoding="UTF-8"?>
<svg id="Ebene_1" data-name="Ebene 1" xmlns="http://www.w3.org/2000/svg" viewBox="0 0 811 811">
  <defs>
    <style>
      .cls-1 {
        fill: #002147;
      }
    </style>
  </defs>
  <path class="cls-1" d="m317.88,442.42c-57.16-33-67.23-83-30.07-121.71,2.8-2.91,1.02-7.75-3-8.21-33.39-3.79-65.3-13.15-91.17-28.09l-63.6-36.72c-1.51-.87-3.37-.87-4.88,0l-42.95,24.81c-3.25,1.88-3.25,6.58,0,8.46l66.65,38.48c3.25,1.88,3.25,6.58,0,8.46l-66.65,38.48c-3.25,1.88-3.25,6.58,0,8.46l66.65,38.48c3.25,1.88,3.25,6.58,0,8.46l-66.65,38.48c-3.25,1.88-3.25,6.58,0,8.46l66.65,38.48c3.25,1.88,3.25,6.58,0,8.46l-66.65,38.48c-3.25,1.88-3.25,6.58,0,8.46l321.02,185.34c1.51.87,3.37.87,4.88,0l212.15-122.49c3.25-1.88,3.25-6.58,0-8.46l-302.37-174.58h0Z"/>
  <path class="cls-1" d="m660.41,320.64l66.65-38.48c3.25-1.88,3.25-6.58,0-8.46L406.04,88.35c-1.51-.87-3.37-.87-4.88,0l-215.37,124.35c-3.25,1.88-3.25,6.58,0,8.46l58.72,33.9c38.56,22.26,99.78,23.59,140.64,3.93.12-.06.24-.12.36-.2l18.7-10.8c1.26-.73,2.59-1.39,3.98-1.99.16-.07.33-.15.48-.24l3.5-2.02c4.18-2.41,2.69-8.79-2.13-9.1l-66.53-4.28c-19.81-1.28-34.19-11.57-32.11-23,2.09-11.43,19.83-19.66,39.65-18.39l157.54,10.13c.24.02.46.03.7.06.25.02.51.03.76.06.27.02.54.06.81.08s.56.06.84.09c.07,0,.15.02.22.02.83.11,1.67.23,2.5.35.11.02.24.03.35.06.35.06.69.12,1.03.19.17.03.34.07.51.1.34.07.68.14,1.02.21.16.03.33.07.49.11.34.08.68.15,1.02.24.15.04.29.07.45.11.35.09.69.18,1.03.28.12.03.24.07.37.11.36.11.73.21,1.08.32.05.02.1.03.15.05,1.14.36,2.26.76,3.33,1.19.17.07.34.14.51.2.24.11.49.2.73.32.22.1.43.2.64.29.2.1.42.2.62.29.26.12.52.25.77.38.16.08.32.16.47.24.42.22.82.44,1.22.67h0c.4.23.78.46,1.16.7.15.09.29.19.42.28.22.15.45.29.66.45.17.12.34.24.51.36.17.12.33.24.5.37.19.14.37.29.55.42.12.1.24.2.35.29.76.63,1.46,1.28,2.08,1.94.02.02.05.05.07.07.2.21.38.42.56.63.06.07.12.14.18.2.17.2.33.4.48.6.07.08.13.17.19.25.15.2.29.39.42.59.07.09.12.19.18.28.13.2.25.39.37.59.06.1.11.19.16.29.11.2.23.4.33.6.04.08.07.16.11.24.22.46.42.91.59,1.38.02.05.04.1.06.15.06.16.11.33.15.5.05.15.1.3.14.46.04.15.07.29.11.45.03.13.07.27.09.4l17.55,90.95c2.21,11.44-12.05,21.68-31.85,22.89-11.29.68-21.96-1.72-29.44-6.04-5.63-3.25-9.46-7.58-10.41-12.49l-7.9-40.97c-.64-3.29-4.33-4.98-7.24-3.3l-28.07,16.21c-2.89,1.67-5.87,3.27-8.91,4.79l-66.11,38.17c-40.57,23.42-40.36,61.66.46,85.23l309.53,178.71c-.12.14-.25.27-.38.41l49.17-28.39c3.25-1.88,3.25-6.58,0-8.46l-66.65-38.48c-3.25-1.88-3.25-6.58,0-8.46l66.65-38.48c3.25-1.88,3.25-6.58,0-8.46l-66.65-38.48c-3.25-1.88-3.25-6.58,0-8.46l66.65-38.48c3.25-1.88,3.25-6.58,0-8.46l-66.65-38.48c-3.25-1.88-3.25-6.58,0-8.46l.02.02Z"/>
</svg>