<?xml version="1.0" encoding="UTF-8" standalone="no"?>
<!-- Created with Inkscape (http://www.inkscape.org/) -->

<svg
   width="128"
   height="176"
   viewBox="0 0 128 175.99999"
   version="1.1"
   id="svg5"
   xml:space="preserve"
   inkscape:version="1.2.1 (9c6d41e, 2022-07-14)"
   sodipodi:docname="sloth.svg"
   inkscape:export-filename="sloth.svg"
   inkscape:export-xdpi="96"
   inkscape:export-ydpi="96"
   xmlns:inkscape="http://www.inkscape.org/namespaces/inkscape"
   xmlns:sodipodi="http://sodipodi.sourceforge.net/DTD/sodipodi-0.dtd"
   xmlns="http://www.w3.org/2000/svg"
   xmlns:svg="http://www.w3.org/2000/svg"><sodipodi:namedview
     id="namedview7"
     pagecolor="#ffffff"
     bordercolor="#000000"
     borderopacity="0.25"
     inkscape:showpageshadow="false"
     inkscape:pageopacity="0.0"
     inkscape:pagecheckerboard="true"
     inkscape:deskcolor="#d1d1d1"
     inkscape:document-units="px"
     showgrid="false"
     inkscape:zoom="4.6264396"
     inkscape:cx="-30.152777"
     inkscape:cy="101.91422"
     inkscape:window-width="1920"
     inkscape:window-height="979"
     inkscape:window-x="101"
     inkscape:window-y="38"
     inkscape:window-maximized="0"
     inkscape:current-layer="layer3"
     shape-rendering="auto" /><defs
     id="defs19150" /><g
     inkscape:groupmode="layer"
     id="layer3"
     inkscape:label="Layer 1"><g
       id="sloth-arm"
       style="fill:none"
       inkscape:transform-center-x="-0.14650109"
       inkscape:transform-center-y="26.11989"><path
         style="fill:none;stroke:#000000;stroke-width:3.43002;stroke-linecap:round;stroke-dasharray:none;stroke-opacity:1"
         d="m 14.514759,154.02465 c -0.223222,7.54279 1.889033,14.31023 6.003671,20.12666"
         id="path11933"
         sodipodi:nodetypes="cac" /><path
         style="fill:none;stroke:#000000;stroke-width:3.43002;stroke-linecap:round;stroke-dasharray:none;stroke-opacity:1"
         d="m 18.102994,156.94 c 0.876984,6.63374 3.47077,12.36155 7.569543,17.07907"
         id="path11935"
         sodipodi:nodetypes="cac" /><path
         style="fill:none;stroke:#000000;stroke-width:3.43002;stroke-linecap:round;stroke-dasharray:none;stroke-opacity:1"
         d="m 22.590384,155.6948 c -0.02644,6.78986 4.860219,11.28627 8.356559,15.96141"
         id="path11937"
         sodipodi:nodetypes="csc" /><path
         style="display:inline;fill:none;fill-opacity:1;stroke:#000000;stroke-width:4.0018;stroke-linecap:round;stroke-dasharray:none;stroke-opacity:1"
         d="m 16.155526,92.631962 c -2.397382,14.608358 -5.018547,40.414198 -2.309374,58.794228 1.345636,10.71389 13.390445,3.26402 10.026414,-4.80477 -0.185829,-10.97318 3.22198,-26.38245 9.483242,-35.8906"
         id="path10943"
         sodipodi:nodetypes="ccsc" /></g><g
       id="sloth-body"
       style="fill:none"><path
         style="fill:none;fill-opacity:0.996078;stroke:#000000;stroke-width:4;stroke-linecap:round;stroke-linejoin:round;stroke-dasharray:none;stroke-opacity:1"
         d="M 61.336101,67.453676 C 57.122204,63.714281 59.450191,54.612518 56.881443,48.855676 52.923508,39.985518 42.253159,33.966119 32.313919,33.185915 30.379026,33.034031 30.27136,32.592447 26.491469,33.096325 l -2.825741,0.376686 C 9.9437551,35.302218 0.26032252,46.069416 2.2065025,59.935389 3.0716644,80.339077 10.912511,102.04229 28.700604,113.58067 c 13.577672,9.16985 30.624678,11.41364 46.669719,10.83986 18.268794,-0.877 37.706797,-9.99707 44.895357,-27.827253 5.42971,-13.34508 6.81554,-28.317784 4.94335,-42.535971 -0.6407,-6.66636 -6.04889,-6.606256 -7.19109,0.300158 -0.57049,3.449516 -4.15524,10.764389 -6.01114,3.299577"
         id="path356"
         sodipodi:nodetypes="csssssaccssc" /></g><g
       id="sloth-face"
       style="fill:none;fill-opacity:0.99607801"><path
         style="fill:none;fill-opacity:0.99607801;stroke:#000000;stroke-width:4.24961;stroke-dasharray:none;stroke-opacity:1"
         d="m 14.097135,45.06275 c 6.594093,-3.092353 13.024301,4.64989 19.788171,1.505066 5.845188,-3.519947 15.063887,-2.847274 15.553048,5.557662 1.504572,8.883565 -2.696937,20.630621 -12.677006,22.055619 -9.206273,2.426258 -21.888604,0.05935 -25.533835,-9.789371 C 9.7964043,58.277976 8.9129239,49.606375 14.097135,45.06275 Z"
         id="path1068"
         sodipodi:nodetypes="aaaassaa" /><path
         style="fill:none;stroke:#000000;stroke-width:4.24961;stroke-linecap:round;stroke-dasharray:none;stroke-opacity:1;fill-opacity:0.99607801"
         d="M 25.150328,53.598222 C 19.5057,53.230017 15.33792,56.597843 12.015927,60.78691"
         id="path1076"
         sodipodi:nodetypes="csc" /><path
         style="fill:none;stroke:#000000;stroke-width:4.24961;stroke-linecap:round;stroke-dasharray:none;stroke-opacity:1;fill-opacity:0.99607801"
         d="m 35.397394,53.690084 c 5.301525,0.26916 9.127221,3.370397 12.03295,7.622747"
         id="path1078"
         sodipodi:nodetypes="cac" /><path
         style="fill:none;stroke:#000000;stroke-width:4.24961;stroke-linecap:round;stroke-dasharray:none;stroke-opacity:1;fill-opacity:0.99607801"
         d="m 23.623698,61.785599 c 4.082759,1.95693 8.532002,2.209343 12.661822,0.186749"
         id="path1260"
         sodipodi:nodetypes="cac" /></g><path
       style="fill:none;fill-opacity:0.996078;stroke:#000000;stroke-width:4;stroke-linecap:round;stroke-dasharray:none;stroke-opacity:1"
       d="m 90.118843,62.518213 c 0,0 6.483175,-9.799709 7.212019,-16.207953 1.536074,-13.505678 1.472686,-33.390562 -1.085642,-36.8551862 -1.8363,-2.4867984 2.553319,-7.0642704 5.62356,-7.2690653 4.47491,-0.2984939 6.86184,7.7656371 7.13595,12.7506545 0.65157,11.849278 -0.35635,22.14692 0.7275,32.644203 0.45452,4.402105 2.77413,12.15515 2.77413,12.15515"
       id="sloth-leg"
       sodipodi:nodetypes="csssssc"
       inkscape:transform-center-x="0.78718015"
       inkscape:transform-center-y="-26.239749" /><path
       style="fill:none;fill-opacity:0.996078;stroke:#000000;stroke-width:4;stroke-linecap:round;stroke-linejoin:round;stroke-dasharray:none;stroke-opacity:1"
       d="m 61.544375,67.725792 c 0,0 4.180075,-3.330428 5.121302,-22.621441 0.435414,-8.924059 0.0562,-20.445183 -2.448976,-29.387709 -0.935496,-3.339364 -8.661263,-2.000533 -8.853989,-5.4631 -0.203842,-3.6622892 5.01835,-6.3926212 8.665606,-6.7817786 4.579867,-0.4886658 10.670019,1.6359167 12.433262,6.028249 5.078151,12.6499446 4.629924,21.9263736 5.069182,33.0697116 0.395593,10.035614 6.26e-4,20.251473 -2.206773,30.0493 -1.23259,5.471008 -2.969712,11.280552 -6.082137,15.686572 -6.830033,9.66876 -9.363708,10.642509 -9.363708,10.642509"
       id="sloth-top-arm"
       sodipodi:nodetypes="cssaasaasc"
       inkscape:transform-center-x="-3.6734622"
       inkscape:transform-center-y="-29.649129" /><path
       style="fill:none;fill-opacity:0.996078;stroke:#000000;stroke-width:4;stroke-linecap:round;stroke-linejoin:round;stroke-dasharray:none;stroke-opacity:1"
       d="m 93.209917,58.010985 c -4.942263,8.642024 -6.086224,5.751959 -12.453354,7.569467"
       id="path17784"
       sodipodi:nodetypes="cc" /></g></svg>
